<mxfile host="app.diagrams.net" modified="2023-11-03T19:47:46.178Z" agent="5.0 (Windows)" etag="kGw3cL-zBUaE28nSZOU7" version="20.8.16" type="github">
  <diagram name="Page-1" id="22Nq_5IpWs1y-Xmv-Dux">
    <mxGraphModel dx="1211" dy="975" grid="1" gridSize="10" guides="1" tooltips="1" connect="1" arrows="1" fold="1" page="1" pageScale="1" pageWidth="850" pageHeight="1100" math="0" shadow="0">
      <root>
        <mxCell id="0" />
        <mxCell id="1" parent="0" />
        <mxCell id="IaUoNmnL33Bn5HJC1rTn-1" value="&lt;h5 dir=&quot;auto&quot;&gt;&lt;em&gt;Base-configuration&lt;/em&gt;&lt;/h5&gt;" style="rounded=0;whiteSpace=wrap;html=1;fontStyle=2" parent="1" vertex="1">
          <mxGeometry x="110" y="40" width="120" height="30" as="geometry" />
        </mxCell>
        <mxCell id="IaUoNmnL33Bn5HJC1rTn-5" value="" style="edgeStyle=orthogonalEdgeStyle;rounded=0;orthogonalLoop=1;jettySize=auto;html=1;fontStyle=2" parent="1" source="IaUoNmnL33Bn5HJC1rTn-3" target="IaUoNmnL33Bn5HJC1rTn-4" edge="1">
          <mxGeometry relative="1" as="geometry" />
        </mxCell>
        <mxCell id="IaUoNmnL33Bn5HJC1rTn-3" value="&lt;h5 dir=&quot;auto&quot;&gt;&lt;em&gt;RabbitMQ-Login&lt;/em&gt;&lt;/h5&gt;" style="rounded=0;whiteSpace=wrap;html=1;fontStyle=2" parent="1" vertex="1">
          <mxGeometry x="190" y="230" width="120" height="30" as="geometry" />
        </mxCell>
        <mxCell id="IaUoNmnL33Bn5HJC1rTn-7" style="edgeStyle=orthogonalEdgeStyle;rounded=0;orthogonalLoop=1;jettySize=auto;html=1;exitX=0.5;exitY=0;exitDx=0;exitDy=0;entryX=0.5;entryY=1;entryDx=0;entryDy=0;fontStyle=2" parent="1" source="IaUoNmnL33Bn5HJC1rTn-4" target="IaUoNmnL33Bn5HJC1rTn-1" edge="1">
          <mxGeometry relative="1" as="geometry">
            <Array as="points">
              <mxPoint x="250" y="110" />
              <mxPoint x="170" y="110" />
            </Array>
          </mxGeometry>
        </mxCell>
        <mxCell id="IaUoNmnL33Bn5HJC1rTn-4" value="&lt;h5 dir=&quot;auto&quot;&gt;&lt;em&gt;RabbitMQ&lt;/em&gt;&lt;/h5&gt;" style="rounded=0;whiteSpace=wrap;html=1;fontStyle=2" parent="1" vertex="1">
          <mxGeometry x="190" y="150" width="120" height="30" as="geometry" />
        </mxCell>
        <mxCell id="IaUoNmnL33Bn5HJC1rTn-8" style="edgeStyle=orthogonalEdgeStyle;rounded=0;orthogonalLoop=1;jettySize=auto;html=1;entryX=0.5;entryY=1;entryDx=0;entryDy=0;exitX=0.5;exitY=0;exitDx=0;exitDy=0;fontStyle=2" parent="1" source="IaUoNmnL33Bn5HJC1rTn-6" target="IaUoNmnL33Bn5HJC1rTn-1" edge="1">
          <mxGeometry relative="1" as="geometry">
            <mxPoint x="180" y="50" as="targetPoint" />
            <mxPoint x="100" y="120" as="sourcePoint" />
            <Array as="points">
              <mxPoint x="90" y="110" />
              <mxPoint x="170" y="110" />
            </Array>
          </mxGeometry>
        </mxCell>
        <mxCell id="IaUoNmnL33Bn5HJC1rTn-6" value="&lt;h5 dir=&quot;auto&quot;&gt;&lt;em&gt;ConnectionStrings &lt;/em&gt;&lt;/h5&gt;" style="rounded=0;whiteSpace=wrap;html=1;fontStyle=2" parent="1" vertex="1">
          <mxGeometry x="30" y="150" width="120" height="30" as="geometry" />
        </mxCell>
        <mxCell id="TUFR3UTOfwyV9LuIWG72-1" value="" style="shape=flexArrow;endArrow=classic;html=1;rounded=0;" edge="1" parent="1">
          <mxGeometry width="50" height="50" relative="1" as="geometry">
            <mxPoint x="120" y="390" as="sourcePoint" />
            <mxPoint x="120" y="450" as="targetPoint" />
          </mxGeometry>
        </mxCell>
        <mxCell id="TUFR3UTOfwyV9LuIWG72-2" value="&lt;pre class=&quot;notranslate&quot;&gt;&lt;code&gt;&lt;b&gt;JSON input:&lt;/b&gt;&lt;br&gt;{&lt;br&gt;  &lt;/code&gt;&lt;code&gt;&quot;base&quot;:&quot;$ref:base-configuration&quot;&lt;br&gt;&lt;/code&gt;&lt;code&gt;}&lt;/code&gt;&lt;/pre&gt;" style="text;html=1;strokeColor=none;fillColor=none;align=left;verticalAlign=middle;whiteSpace=wrap;rounded=0;" vertex="1" parent="1">
          <mxGeometry x="210" y="350" width="350" height="70" as="geometry" />
        </mxCell>
        <mxCell id="TUFR3UTOfwyV9LuIWG72-3" value="Client, service, app, etc." style="shape=umlActor;verticalLabelPosition=bottom;verticalAlign=top;html=1;outlineConnect=0;" vertex="1" parent="1">
          <mxGeometry x="110" y="320" width="20" height="40" as="geometry" />
        </mxCell>
        <mxCell id="TUFR3UTOfwyV9LuIWG72-4" value="Configuration Service API" style="rounded=0;whiteSpace=wrap;html=1;" vertex="1" parent="1">
          <mxGeometry x="40" y="450" width="160" height="40" as="geometry" />
        </mxCell>
        <mxCell id="TUFR3UTOfwyV9LuIWG72-5" value="" style="shape=cylinder3;whiteSpace=wrap;html=1;boundedLbl=1;backgroundOutline=1;size=15;" vertex="1" parent="1">
          <mxGeometry x="300" y="490" width="60" height="80" as="geometry" />
        </mxCell>
        <mxCell id="TUFR3UTOfwyV9LuIWG72-6" value="" style="shape=flexArrow;endArrow=classic;html=1;rounded=0;" edge="1" parent="1">
          <mxGeometry width="50" height="50" relative="1" as="geometry">
            <mxPoint x="119.5" y="500" as="sourcePoint" />
            <mxPoint x="120" y="970" as="targetPoint" />
          </mxGeometry>
        </mxCell>
        <mxCell id="TUFR3UTOfwyV9LuIWG72-7" value="" style="shape=flexArrow;endArrow=classic;html=1;rounded=0;exitX=0;exitY=0.5;exitDx=0;exitDy=0;exitPerimeter=0;" edge="1" parent="1" source="TUFR3UTOfwyV9LuIWG72-5">
          <mxGeometry width="50" height="50" relative="1" as="geometry">
            <mxPoint x="-30" y="530" as="sourcePoint" />
            <mxPoint x="130" y="530" as="targetPoint" />
          </mxGeometry>
        </mxCell>
        <mxCell id="TUFR3UTOfwyV9LuIWG72-8" value="&lt;div&gt;&lt;b&gt;SQL connection string&lt;/b&gt;&lt;/div&gt;&lt;div&gt;&lt;code&gt;&quot;ConnectionStrings&quot;:&lt;/code&gt;&lt;/div&gt;&lt;div&gt;&lt;code&gt;{&lt;/code&gt;&lt;/div&gt;&lt;div&gt;&lt;code&gt;&amp;nbsp; &quot;Default&quot;: &quot;Data Source=dbserver;&lt;/code&gt;&lt;/div&gt;&lt;div&gt;&lt;code&gt;&amp;nbsp;&amp;nbsp;&amp;nbsp;&amp;nbsp;&amp;nbsp;&amp;nbsp;&amp;nbsp;&amp;nbsp;&amp;nbsp;&amp;nbsp;&amp;nbsp;&amp;nbsp; Initial Catalog=myDb;User Id=sa;&lt;/code&gt;&lt;/div&gt;&lt;div&gt;&lt;code&gt;&amp;nbsp;&amp;nbsp;&amp;nbsp;&amp;nbsp;&amp;nbsp;&amp;nbsp;&amp;nbsp;&amp;nbsp;&amp;nbsp;&amp;nbsp;&amp;nbsp;&amp;nbsp; Password=SuperNinjaPassword&quot;&lt;/code&gt;&lt;/div&gt;&lt;div&gt;&lt;code&gt;}&lt;/code&gt;&lt;/div&gt;" style="text;html=1;strokeColor=none;fillColor=none;align=left;verticalAlign=middle;whiteSpace=wrap;rounded=0;" vertex="1" parent="1">
          <mxGeometry x="270" y="580" width="350" height="120" as="geometry" />
        </mxCell>
        <mxCell id="TUFR3UTOfwyV9LuIWG72-9" value="" style="shape=cylinder3;whiteSpace=wrap;html=1;boundedLbl=1;backgroundOutline=1;size=15;" vertex="1" parent="1">
          <mxGeometry x="300" y="740" width="60" height="80" as="geometry" />
        </mxCell>
        <mxCell id="TUFR3UTOfwyV9LuIWG72-10" value="" style="shape=flexArrow;endArrow=classic;html=1;rounded=0;exitX=0;exitY=0.5;exitDx=0;exitDy=0;exitPerimeter=0;" edge="1" parent="1">
          <mxGeometry width="50" height="50" relative="1" as="geometry">
            <mxPoint x="300" y="779.5" as="sourcePoint" />
            <mxPoint x="130" y="779.5" as="targetPoint" />
          </mxGeometry>
        </mxCell>
        <mxCell id="TUFR3UTOfwyV9LuIWG72-11" value="&lt;div&gt;&lt;b&gt;RabbitMQ settings&lt;/b&gt;&lt;/div&gt;&lt;div&gt;&lt;code&gt;&quot;RabbitMQ&quot;:&lt;/code&gt;&lt;/div&gt;&lt;div&gt;&lt;code&gt;{&lt;/code&gt;&lt;/div&gt;&lt;div&gt;&lt;code&gt;&amp;nbsp; &quot;Server&quot;: &quot;MyMqServer&quot;,&lt;/code&gt;&lt;/div&gt;&lt;div&gt;&lt;code&gt;&amp;nbsp; &quot;Port&quot;: 5672,&lt;/code&gt;&lt;/div&gt;&lt;div&gt;&lt;code&gt;&amp;nbsp; &quot;Username&quot;: &quot;Goofy&quot;,&lt;/code&gt;&lt;/div&gt;&lt;div&gt;&lt;code&gt;&amp;nbsp; &quot;Password&quot;: &quot;EpicHeroPassword&quot;&lt;/code&gt;&lt;/div&gt;&lt;div&gt;&lt;code&gt;  }&lt;/code&gt;&lt;/div&gt;" style="text;html=1;strokeColor=none;fillColor=none;align=left;verticalAlign=middle;whiteSpace=wrap;rounded=0;" vertex="1" parent="1">
          <mxGeometry x="270" y="830" width="350" height="120" as="geometry" />
        </mxCell>
        <mxCell id="TUFR3UTOfwyV9LuIWG72-12" value="&lt;pre class=&quot;notranslate&quot;&gt;&lt;code&gt;&lt;b&gt;JSON output:&lt;/b&gt;&lt;br&gt;{&lt;br&gt;  &quot;ConnectionStrings&quot;: {&lt;br&gt;    &quot;Default&quot;: &quot;Data Source=dbserver;&lt;br&gt;               Initial Catalog=myDb;User Id=sa;&lt;br&gt;               Password=SuperNinjaPassword&quot;&lt;br&gt;  },&lt;br&gt;  &quot;RabbitMQ&quot;: {&lt;br&gt;    &quot;Server&quot;: &quot;MyMqServer&quot;,&lt;br&gt;    &quot;Port&quot;: 5672,&lt;br&gt;    &quot;Username&quot;: &quot;Goofy&quot;,&lt;br&gt;    &quot;Password&quot;: &quot;EpicHeroPassword&quot;&lt;br&gt;  }&lt;br&gt;}&lt;br&gt;&lt;/code&gt;&lt;/pre&gt;" style="text;html=1;strokeColor=none;fillColor=none;align=left;verticalAlign=middle;whiteSpace=wrap;rounded=0;" vertex="1" parent="1">
          <mxGeometry x="150" y="960" width="350" height="210" as="geometry" />
        </mxCell>
      </root>
    </mxGraphModel>
  </diagram>
</mxfile>
